<?xml version="1.0" encoding="utf-8"?>
<!DOCTYPE svg>
<svg width="800" height="300" style="background:white" xmlns="http://www.w3.org/2000/svg">
	<g transform="translate(0.5,0.5)">
		<defs>
			<clipPath id="clip-id-1414130004163-24">
				<rect x="0" y="0" width="800" height="300">
				</rect>
			</clipPath>
		</defs>
		<g class="grid block" display="none" transform="translate(0,300)">
			<g transform="translate(50, 0)">
				<line x1="-50" y1="0" x2="-50" y2="-300" stroke="#ebebeb" stroke-width="1" stroke-opacity="1">
				</line>
				<text font-family="arial,Tahoma,verdana" font-size="11px" fill="#333333" text-anchor="middle" y="20" x="0">
					week1
				</text>
			</g>
			<g transform="translate(150, 0)">
				<line x1="-50" y1="0" x2="-50" y2="-300" stroke="#ebebeb" stroke-width="1" stroke-opacity="1">
				</line>
				<text font-family="arial,Tahoma,verdana" font-size="11px" fill="#333333" text-anchor="middle" y="20" x="0">
					week2
				</text>
			</g>
			<g transform="translate(250, 0)">
				<line x1="-50" y1="0" x2="-50" y2="-300" stroke="#ebebeb" stroke-width="1" stroke-opacity="1">
				</line>
				<text font-family="arial,Tahoma,verdana" font-size="11px" fill="#333333" text-anchor="middle" y="20" x="0">
					week3
				</text>
			</g>
			<g transform="translate(350, 0)">
				<line x1="-50" y1="0" x2="-50" y2="-300" stroke="#ebebeb" stroke-width="1" stroke-opacity="1">
				</line>
				<text font-family="arial,Tahoma,verdana" font-size="11px" fill="#333333" text-anchor="middle" y="20" x="0">
					week4
				</text>
			</g>
			<g transform="translate(450, 0)">
				<line x1="-50" y1="0" x2="-50" y2="-300" stroke="#ebebeb" stroke-width="1" stroke-opacity="1">
				</line>
				<text font-family="arial,Tahoma,verdana" font-size="11px" fill="#333333" text-anchor="middle" y="20" x="0">
					week5
				</text>
			</g>
			<g transform="translate(550, 0)">
				<line x1="-50" y1="0" x2="-50" y2="-300" stroke="#ebebeb" stroke-width="1" stroke-opacity="1">
				</line>
				<text font-family="arial,Tahoma,verdana" font-size="11px" fill="#333333" text-anchor="middle" y="20" x="0">
					week6
				</text>
			</g>
			<g transform="translate(650, 0)">
				<line x1="-50" y1="0" x2="-50" y2="-300" stroke="#ebebeb" stroke-width="1" stroke-opacity="1">
				</line>
				<text font-family="arial,Tahoma,verdana" font-size="11px" fill="#333333" text-anchor="middle" y="20" x="0">
					week7
				</text>
			</g>
			<g transform="translate(750, 0)">
				<line x1="-50" y1="0" x2="-50" y2="-300" stroke="#ebebeb" stroke-width="1" stroke-opacity="1">
				</line>
				<text font-family="arial,Tahoma,verdana" font-size="11px" fill="#333333" text-anchor="middle" y="20" x="0">
					week8
				</text>
			</g>
			<g transform="translate(800, 0)">
				<line x1="0" y1="0" x2="0" y2="-300" stroke="#ebebeb" stroke-width="1" stroke-opacity="1">
				</line>
			</g>
		</g>
		<g class="grid range" display="none" transform="translate(0,0)">
			<line x1="0" y1="0" x2="0" y2="300" stroke="#ebebeb" stroke-width="1" stroke-opacity="1">
			</line>
			<g transform="translate(0, 300)">
				<line x1="0" y1="0" x2="-6" y2="0" stroke="#ebebeb" stroke-width="1" stroke-opacity="1">
				</line>
				<text font-family="arial,Tahoma,verdana" font-size="11px" fill="#333333" text-anchor="end" y="6" x="-10">
					0
				</text>
			</g>
			<g transform="translate(0, 262.5)">
				<line x1="0" y1="0" x2="-6" y2="0" stroke="#ebebeb" stroke-width="1" stroke-opacity="1">
				</line>
				<text font-family="arial,Tahoma,verdana" font-size="11px" fill="#333333" text-anchor="end" y="6" x="-10">
					2
				</text>
			</g>
			<g transform="translate(0, 225)">
				<line x1="0" y1="0" x2="-6" y2="0" stroke="#ebebeb" stroke-width="1" stroke-opacity="1">
				</line>
				<text font-family="arial,Tahoma,verdana" font-size="11px" fill="#333333" text-anchor="end" y="6" x="-10">
					4
				</text>
			</g>
			<g transform="translate(0, 187.5)">
				<line x1="0" y1="0" x2="-6" y2="0" stroke="#ebebeb" stroke-width="1" stroke-opacity="1">
				</line>
				<text font-family="arial,Tahoma,verdana" font-size="11px" fill="#333333" text-anchor="end" y="6" x="-10">
					6
				</text>
			</g>
			<g transform="translate(0, 150)">
				<line x1="0" y1="0" x2="-6" y2="0" stroke="#ebebeb" stroke-width="1" stroke-opacity="1">
				</line>
				<text font-family="arial,Tahoma,verdana" font-size="11px" fill="#333333" text-anchor="end" y="6" x="-10">
					8
				</text>
			</g>
			<g transform="translate(0, 112.5)">
				<line x1="0" y1="0" x2="-6" y2="0" stroke="#ebebeb" stroke-width="1" stroke-opacity="1">
				</line>
				<text font-family="arial,Tahoma,verdana" font-size="11px" fill="#333333" text-anchor="end" y="6" x="-10">
					10
				</text>
			</g>
			<g transform="translate(0, 75)">
				<line x1="0" y1="0" x2="-6" y2="0" stroke="#ebebeb" stroke-width="1" stroke-opacity="1">
				</line>
				<text font-family="arial,Tahoma,verdana" font-size="11px" fill="#333333" text-anchor="end" y="6" x="-10">
					12
				</text>
			</g>
			<g transform="translate(0, 37.5)">
				<line x1="0" y1="0" x2="-6" y2="0" stroke="#ebebeb" stroke-width="1" stroke-opacity="1">
				</line>
				<text font-family="arial,Tahoma,verdana" font-size="11px" fill="#333333" text-anchor="end" y="6" x="-10">
					14
				</text>
			</g>
			<g transform="translate(0, 0)">
				<line x1="0" y1="0" x2="-6" y2="0" stroke="#ebebeb" stroke-width="1" stroke-opacity="1">
				</line>
				<text font-family="arial,Tahoma,verdana" font-size="11px" fill="#333333" text-anchor="end" y="6" x="-10">
					16
				</text>
			</g>
		</g>
		<g transform="translate(0,0)">
			<rect x="2" y="18.75" width="96" height="281.25" fill="#7977C2">
			</rect>
			<rect x="102" y="187.5" width="96" height="112.5" fill="#7977C2">
			</rect>
			<rect x="202" y="112.5" width="96" height="187.5" fill="#7977C2">
			</rect>
			<rect x="302" y="206.25" width="96" height="93.75" fill="#7977C2">
			</rect>
			<rect x="402" y="112.5" width="96" height="187.5" fill="#7977C2">
			</rect>
			<rect x="502" y="0" width="96" height="300" fill="#7977C2">
			</rect>
			<rect x="602" y="168.75" width="96" height="131.25" fill="#7977C2">
			</rect>
			<rect x="702" y="206.25" width="96" height="93.75" fill="#7977C2">
			</rect>
		</g>
		<g transform="translate(0,0)">
			<path stroke="#7BBAE7" stroke-width="2" fill="transparent" d="M50,262.5 C83.33333333333333,167.63569220199244 116.66666666666666,72.77138440398488 150,56.25 C183.33333333333334,39.72861559601511 216.66666666666669,101.55015458605288 250,150 C283.3333333333333,198.44984541394712 316.66666666666663,233.52799725180347 350,262.5 C383.33333333333337,291.47200274819653 416.6666666666667,314.33785640673307 450,262.5 C483.3333333333333,210.66214359326693 516.6666666666667,84.12057712126418 550,56.25 C583.3333333333333,28.37942287873583 616.6666666666666,99.17983510821023 650,150 C683.3333333333334,200.82016489178977 716.6666666666667,231.6600824458949 750,262.5">
			</path>
		</g>
		<g transform="translate(0,0)">
			<ellipse rx="3.5" ry="3.5" cx="50" cy="262.5" fill="#7BBAE7" stroke="white" stroke-width="1">
			</ellipse>
			<ellipse rx="3.5" ry="3.5" cx="150" cy="56.25" fill="#7BBAE7" stroke="white" stroke-width="1">
			</ellipse>
			<ellipse rx="3.5" ry="3.5" cx="250" cy="150" fill="#7BBAE7" stroke="white" stroke-width="1">
			</ellipse>
			<ellipse rx="3.5" ry="3.5" cx="350" cy="262.5" fill="#7BBAE7" stroke="white" stroke-width="1">
			</ellipse>
			<ellipse rx="3.5" ry="3.5" cx="450" cy="262.5" fill="#7BBAE7" stroke="white" stroke-width="1">
			</ellipse>
			<ellipse rx="3.5" ry="3.5" cx="550" cy="56.25" fill="#7BBAE7" stroke="white" stroke-width="1">
			</ellipse>
			<ellipse rx="3.5" ry="3.5" cx="650" cy="150" fill="#7BBAE7" stroke="white" stroke-width="1">
			</ellipse>
			<ellipse rx="3.5" ry="3.5" cx="750" cy="262.5" fill="#7BBAE7" stroke="white" stroke-width="1">
			</ellipse>
		</g>
	</g>
	<g transform="translate(0.5,0.5)">
	</g>
</svg>
