<?xml version="1.0" encoding="utf-8"?>
<!DOCTYPE svg>
<svg width="300" height="300" style="background:white" xmlns="http://www.w3.org/2000/svg">
  <g transform="translate(0.5,0.5)">
    <defs>
      <clipPath id="clip-id-1414493689749-37">
        <rect x="0" y="0" width="300" height="300"></rect>
      </clipPath>
    </defs>
    <g class="grid date" display="none" transform="translate(0,300)">
      <g transform="translate(0, 0)">
        <line x1="0" y1="0" x2="0" y2="-300" stroke="#ebebeb" stroke-width="1" stroke-dasharray="none" stroke-opacity="1"></line>
        <text font-family="arial,Tahoma,verdana" font-size="11px" fill="#333333" text-anchor="middle" y="18" x="0">07:54</text>
      </g>
      <g transform="translate(60, 0)">
        <line x1="0" y1="0" x2="0" y2="-300" stroke="#ebebeb" stroke-width="1" stroke-dasharray="none" stroke-opacity="1"></line>
        <text font-family="arial,Tahoma,verdana" font-size="11px" fill="#333333" text-anchor="middle" y="18" x="0">08:54</text>
      </g>
      <g transform="translate(120, 0)">
        <line x1="0" y1="0" x2="0" y2="-300" stroke="#ebebeb" stroke-width="1" stroke-dasharray="none" stroke-opacity="1"></line>
        <text font-family="arial,Tahoma,verdana" font-size="11px" fill="#333333" text-anchor="middle" y="18" x="0">09:54</text>
      </g>
      <g transform="translate(180, 0)">
        <line x1="0" y1="0" x2="0" y2="-300" stroke="#ebebeb" stroke-width="1" stroke-dasharray="none" stroke-opacity="1"></line>
        <text font-family="arial,Tahoma,verdana" font-size="11px" fill="#333333" text-anchor="middle" y="18" x="0">10:54</text>
      </g>
      <g transform="translate(240, 0)">
        <line x1="0" y1="0" x2="0" y2="-300" stroke="#ebebeb" stroke-width="1" stroke-dasharray="none" stroke-opacity="1"></line>
        <text font-family="arial,Tahoma,verdana" font-size="11px" fill="#333333" text-anchor="middle" y="18" x="0">11:54</text>
      </g>
      <g transform="translate(300, 0)">
        <line x1="0" y1="0" x2="0" y2="-300" stroke="#ebebeb" stroke-width="1" stroke-dasharray="none" stroke-opacity="1"></line>
        <text font-family="arial,Tahoma,verdana" font-size="11px" fill="#333333" text-anchor="middle" y="18" x="0">12:54</text>
      </g>
    </g>
    <g class="grid range" display="none" transform="translate(0,0)">
      <g transform="translate(0, 300)">
        <line x1="0" y1="0" x2="300" y2="0" stroke="#ebebeb" stroke-width="1" stroke-dasharray="none" stroke-opacity="1"></line>
        <text font-family="arial,Tahoma,verdana" font-size="11px" fill="#333333" text-anchor="end" y="6" x="-10">0</text>
      </g>
      <g transform="translate(0, 270)">
        <line x1="0" y1="0" x2="300" y2="0" stroke="#ebebeb" stroke-width="1" stroke-dasharray="none" stroke-opacity="1"></line>
        <text font-family="arial,Tahoma,verdana" font-size="11px" fill="#333333" text-anchor="end" y="6" x="-10">3</text>
      </g>
      <g transform="translate(0, 240)">
        <line x1="0" y1="0" x2="300" y2="0" stroke="#ebebeb" stroke-width="1" stroke-dasharray="none" stroke-opacity="1"></line>
        <text font-family="arial,Tahoma,verdana" font-size="11px" fill="#333333" text-anchor="end" y="6" x="-10">6</text>
      </g>
      <g transform="translate(0, 210)">
        <line x1="0" y1="0" x2="300" y2="0" stroke="#ebebeb" stroke-width="1" stroke-dasharray="none" stroke-opacity="1"></line>
        <text font-family="arial,Tahoma,verdana" font-size="11px" fill="#333333" text-anchor="end" y="6" x="-10">9</text>
      </g>
      <g transform="translate(0, 180)">
        <line x1="0" y1="0" x2="300" y2="0" stroke="#ebebeb" stroke-width="1" stroke-dasharray="none" stroke-opacity="1"></line>
        <text font-family="arial,Tahoma,verdana" font-size="11px" fill="#333333" text-anchor="end" y="6" x="-10">12</text>
      </g>
      <g transform="translate(0, 150)">
        <line x1="0" y1="0" x2="300" y2="0" stroke="#ebebeb" stroke-width="1" stroke-dasharray="none" stroke-opacity="1"></line>
        <text font-family="arial,Tahoma,verdana" font-size="11px" fill="#333333" text-anchor="end" y="6" x="-10">15</text>
      </g>
      <g transform="translate(0, 120)">
        <line x1="0" y1="0" x2="300" y2="0" stroke="#ebebeb" stroke-width="1" stroke-dasharray="none" stroke-opacity="1"></line>
        <text font-family="arial,Tahoma,verdana" font-size="11px" fill="#333333" text-anchor="end" y="6" x="-10">18</text>
      </g>
      <g transform="translate(0, 90)">
        <line x1="0" y1="0" x2="300" y2="0" stroke="#ebebeb" stroke-width="1" stroke-dasharray="none" stroke-opacity="1"></line>
        <text font-family="arial,Tahoma,verdana" font-size="11px" fill="#333333" text-anchor="end" y="6" x="-10">21</text>
      </g>
      <g transform="translate(0, 60)">
        <line x1="0" y1="0" x2="300" y2="0" stroke="#ebebeb" stroke-width="1" stroke-dasharray="none" stroke-opacity="1"></line>
        <text font-family="arial,Tahoma,verdana" font-size="11px" fill="#333333" text-anchor="end" y="6" x="-10">24</text>
      </g>
      <g transform="translate(0, 30)">
        <line x1="0" y1="0" x2="300" y2="0" stroke="#ebebeb" stroke-width="1" stroke-dasharray="none" stroke-opacity="1"></line>
        <text font-family="arial,Tahoma,verdana" font-size="11px" fill="#333333" text-anchor="end" y="6" x="-10">27</text>
      </g>
      <g transform="translate(0, 0)">
        <line x1="0" y1="0" x2="300" y2="0" stroke="#ebebeb" stroke-width="1" stroke-dasharray="none" stroke-opacity="1"></line>
        <text font-family="arial,Tahoma,verdana" font-size="11px" fill="#333333" text-anchor="end" y="6" x="-10">30</text>
      </g>
    </g>
    <g transform="translate(0,0)">
      <rect width="7" height="7" x="-3.5" y="176.5" fill="#7977C2" stroke="white" stroke-width="1"></rect>
      <rect width="7" height="7" x="6.5" y="266.5" fill="#7977C2" stroke="white" stroke-width="1"></rect>
      <rect width="7" height="7" x="16.5" y="246.5" fill="#7977C2" stroke="white" stroke-width="1"></rect>
      <rect width="7" height="7" x="26.5" y="256.5" fill="#7977C2" stroke="white" stroke-width="1"></rect>
      <rect width="7" height="7" x="36.5" y="126.5" fill="#7977C2" stroke="white" stroke-width="1"></rect>
      <rect width="7" height="7" x="46.5" y="226.5" fill="#7977C2" stroke="white" stroke-width="1"></rect>
      <rect width="7" height="7" x="56.5" y="246.5" fill="#7977C2" stroke="white" stroke-width="1"></rect>
      <rect width="7" height="7" x="66.5" y="286.5" fill="#7977C2" stroke="white" stroke-width="1"></rect>
      <rect width="7" height="7" x="76.5" y="236.5" fill="#7977C2" stroke="white" stroke-width="1"></rect>
      <rect width="7" height="7" x="86.5" y="206.5" fill="#7977C2" stroke="white" stroke-width="1"></rect>
      <rect width="7" height="7" x="96.5" y="176.5" fill="#7977C2" stroke="white" stroke-width="1"></rect>
      <rect width="7" height="7" x="106.5" y="236.5" fill="#7977C2" stroke="white" stroke-width="1"></rect>
      <rect width="7" height="7" x="116.5" y="126.5" fill="#7977C2" stroke="white" stroke-width="1"></rect>
      <rect width="7" height="7" x="126.5" y="106.5" fill="#7977C2" stroke="white" stroke-width="1"></rect>
      <rect width="7" height="7" x="136.5" y="276.5" fill="#7977C2" stroke="white" stroke-width="1"></rect>
      <rect width="7" height="7" x="146.5" y="156.5" fill="#7977C2" stroke="white" stroke-width="1"></rect>
      <rect width="7" height="7" x="156.5" y="206.5" fill="#7977C2" stroke="white" stroke-width="1"></rect>
      <rect width="7" height="7" x="166.5" y="276.5" fill="#7977C2" stroke="white" stroke-width="1"></rect>
      <rect width="7" height="7" x="176.5" y="126.5" fill="#7977C2" stroke="white" stroke-width="1"></rect>
      <rect width="7" height="7" x="186.5" y="276.5" fill="#7977C2" stroke="white" stroke-width="1"></rect>
      <rect width="7" height="7" x="196.5" y="236.5" fill="#7977C2" stroke="white" stroke-width="1"></rect>
      <rect width="7" height="7" x="206.5" y="226.5" fill="#7977C2" stroke="white" stroke-width="1"></rect>
      <rect width="7" height="7" x="216.5" y="236.5" fill="#7977C2" stroke="white" stroke-width="1"></rect>
      <rect width="7" height="7" x="226.5" y="236.5" fill="#7977C2" stroke="white" stroke-width="1"></rect>
      <rect width="7" height="7" x="236.5" y="296.5" fill="#7977C2" stroke="white" stroke-width="1"></rect>
      <rect width="7" height="7" x="246.5" y="286.5" fill="#7977C2" stroke="white" stroke-width="1"></rect>
      <rect width="7" height="7" x="256.5" y="216.5" fill="#7977C2" stroke="white" stroke-width="1"></rect>
      <rect width="7" height="7" x="266.5" y="296.5" fill="#7977C2" stroke="white" stroke-width="1"></rect>
      <rect width="7" height="7" x="276.5" y="146.5" fill="#7977C2" stroke="white" stroke-width="1"></rect>
      <rect width="7" height="7" x="286.5" y="246.5" fill="#7977C2" stroke="white" stroke-width="1"></rect>
      <g width="7" height="7" transform="translate(-3.5,266.5)">
        <line stroke="#7BBAE7" stroke-width="2" x1="0" y1="0" x2="7" y2="7"></line>
        <line stroke="#7BBAE7" stroke-width="2" x1="0" y1="7" x2="7" y2="0"></line>
      </g>
      <g width="7" height="7" transform="translate(6.5,274)">
        <line stroke="#7BBAE7" stroke-width="2" x1="0" y1="0" x2="7" y2="7"></line>
        <line stroke="#7BBAE7" stroke-width="2" x1="0" y1="7" x2="7" y2="0"></line>
      </g>
      <g width="7" height="7" transform="translate(16.5,214)">
        <line stroke="#7BBAE7" stroke-width="2" x1="0" y1="0" x2="7" y2="7"></line>
        <line stroke="#7BBAE7" stroke-width="2" x1="0" y1="7" x2="7" y2="0"></line>
      </g>
      <g width="7" height="7" transform="translate(26.5,274)">
        <line stroke="#7BBAE7" stroke-width="2" x1="0" y1="0" x2="7" y2="7"></line>
        <line stroke="#7BBAE7" stroke-width="2" x1="0" y1="7" x2="7" y2="0"></line>
      </g>
      <g width="7" height="7" transform="translate(36.5,236.5)">
        <line stroke="#7BBAE7" stroke-width="2" x1="0" y1="0" x2="7" y2="7"></line>
        <line stroke="#7BBAE7" stroke-width="2" x1="0" y1="7" x2="7" y2="0"></line>
      </g>
      <g width="7" height="7" transform="translate(46.5,274)">
        <line stroke="#7BBAE7" stroke-width="2" x1="0" y1="0" x2="7" y2="7"></line>
        <line stroke="#7BBAE7" stroke-width="2" x1="0" y1="7" x2="7" y2="0"></line>
      </g>
      <g width="7" height="7" transform="translate(56.5,296.5)">
        <line stroke="#7BBAE7" stroke-width="2" x1="0" y1="0" x2="7" y2="7"></line>
        <line stroke="#7BBAE7" stroke-width="2" x1="0" y1="7" x2="7" y2="0"></line>
      </g>
      <g width="7" height="7" transform="translate(66.5,281.5)">
        <line stroke="#7BBAE7" stroke-width="2" x1="0" y1="0" x2="7" y2="7"></line>
        <line stroke="#7BBAE7" stroke-width="2" x1="0" y1="7" x2="7" y2="0"></line>
      </g>
      <g width="7" height="7" transform="translate(76.5,221.5)">
        <line stroke="#7BBAE7" stroke-width="2" x1="0" y1="0" x2="7" y2="7"></line>
        <line stroke="#7BBAE7" stroke-width="2" x1="0" y1="7" x2="7" y2="0"></line>
      </g>
      <g width="7" height="7" transform="translate(86.5,244)">
        <line stroke="#7BBAE7" stroke-width="2" x1="0" y1="0" x2="7" y2="7"></line>
        <line stroke="#7BBAE7" stroke-width="2" x1="0" y1="7" x2="7" y2="0"></line>
      </g>
      <g width="7" height="7" transform="translate(96.5,296.5)">
        <line stroke="#7BBAE7" stroke-width="2" x1="0" y1="0" x2="7" y2="7"></line>
        <line stroke="#7BBAE7" stroke-width="2" x1="0" y1="7" x2="7" y2="0"></line>
      </g>
      <g width="7" height="7" transform="translate(106.5,259)">
        <line stroke="#7BBAE7" stroke-width="2" x1="0" y1="0" x2="7" y2="7"></line>
        <line stroke="#7BBAE7" stroke-width="2" x1="0" y1="7" x2="7" y2="0"></line>
      </g>
      <g width="7" height="7" transform="translate(116.5,266.5)">
        <line stroke="#7BBAE7" stroke-width="2" x1="0" y1="0" x2="7" y2="7"></line>
        <line stroke="#7BBAE7" stroke-width="2" x1="0" y1="7" x2="7" y2="0"></line>
      </g>
      <g width="7" height="7" transform="translate(126.5,244)">
        <line stroke="#7BBAE7" stroke-width="2" x1="0" y1="0" x2="7" y2="7"></line>
        <line stroke="#7BBAE7" stroke-width="2" x1="0" y1="7" x2="7" y2="0"></line>
      </g>
      <g width="7" height="7" transform="translate(136.5,296.5)">
        <line stroke="#7BBAE7" stroke-width="2" x1="0" y1="0" x2="7" y2="7"></line>
        <line stroke="#7BBAE7" stroke-width="2" x1="0" y1="7" x2="7" y2="0"></line>
      </g>
      <g width="7" height="7" transform="translate(146.5,206.5)">
        <line stroke="#7BBAE7" stroke-width="2" x1="0" y1="0" x2="7" y2="7"></line>
        <line stroke="#7BBAE7" stroke-width="2" x1="0" y1="7" x2="7" y2="0"></line>
      </g>
      <g width="7" height="7" transform="translate(156.5,251.5)">
        <line stroke="#7BBAE7" stroke-width="2" x1="0" y1="0" x2="7" y2="7"></line>
        <line stroke="#7BBAE7" stroke-width="2" x1="0" y1="7" x2="7" y2="0"></line>
      </g>
      <g width="7" height="7" transform="translate(166.5,251.5)">
        <line stroke="#7BBAE7" stroke-width="2" x1="0" y1="0" x2="7" y2="7"></line>
        <line stroke="#7BBAE7" stroke-width="2" x1="0" y1="7" x2="7" y2="0"></line>
      </g>
      <g width="7" height="7" transform="translate(176.5,274)">
        <line stroke="#7BBAE7" stroke-width="2" x1="0" y1="0" x2="7" y2="7"></line>
        <line stroke="#7BBAE7" stroke-width="2" x1="0" y1="7" x2="7" y2="0"></line>
      </g>
      <g width="7" height="7" transform="translate(186.5,161.5)">
        <line stroke="#7BBAE7" stroke-width="2" x1="0" y1="0" x2="7" y2="7"></line>
        <line stroke="#7BBAE7" stroke-width="2" x1="0" y1="7" x2="7" y2="0"></line>
      </g>
      <g width="7" height="7" transform="translate(196.5,289)">
        <line stroke="#7BBAE7" stroke-width="2" x1="0" y1="0" x2="7" y2="7"></line>
        <line stroke="#7BBAE7" stroke-width="2" x1="0" y1="7" x2="7" y2="0"></line>
      </g>
      <g width="7" height="7" transform="translate(206.5,244)">
        <line stroke="#7BBAE7" stroke-width="2" x1="0" y1="0" x2="7" y2="7"></line>
        <line stroke="#7BBAE7" stroke-width="2" x1="0" y1="7" x2="7" y2="0"></line>
      </g>
      <g width="7" height="7" transform="translate(216.5,289)">
        <line stroke="#7BBAE7" stroke-width="2" x1="0" y1="0" x2="7" y2="7"></line>
        <line stroke="#7BBAE7" stroke-width="2" x1="0" y1="7" x2="7" y2="0"></line>
      </g>
      <g width="7" height="7" transform="translate(226.5,154)">
        <line stroke="#7BBAE7" stroke-width="2" x1="0" y1="0" x2="7" y2="7"></line>
        <line stroke="#7BBAE7" stroke-width="2" x1="0" y1="7" x2="7" y2="0"></line>
      </g>
      <g width="7" height="7" transform="translate(236.5,251.5)">
        <line stroke="#7BBAE7" stroke-width="2" x1="0" y1="0" x2="7" y2="7"></line>
        <line stroke="#7BBAE7" stroke-width="2" x1="0" y1="7" x2="7" y2="0"></line>
      </g>
      <g width="7" height="7" transform="translate(246.5,296.5)">
        <line stroke="#7BBAE7" stroke-width="2" x1="0" y1="0" x2="7" y2="7"></line>
        <line stroke="#7BBAE7" stroke-width="2" x1="0" y1="7" x2="7" y2="0"></line>
      </g>
      <g width="7" height="7" transform="translate(256.5,229)">
        <line stroke="#7BBAE7" stroke-width="2" x1="0" y1="0" x2="7" y2="7"></line>
        <line stroke="#7BBAE7" stroke-width="2" x1="0" y1="7" x2="7" y2="0"></line>
      </g>
      <g width="7" height="7" transform="translate(266.5,259)">
        <line stroke="#7BBAE7" stroke-width="2" x1="0" y1="0" x2="7" y2="7"></line>
        <line stroke="#7BBAE7" stroke-width="2" x1="0" y1="7" x2="7" y2="0"></line>
      </g>
      <g width="7" height="7" transform="translate(276.5,251.5)">
        <line stroke="#7BBAE7" stroke-width="2" x1="0" y1="0" x2="7" y2="7"></line>
        <line stroke="#7BBAE7" stroke-width="2" x1="0" y1="7" x2="7" y2="0"></line>
      </g>
      <g width="7" height="7" transform="translate(286.5,199)">
        <line stroke="#7BBAE7" stroke-width="2" x1="0" y1="0" x2="7" y2="7"></line>
        <line stroke="#7BBAE7" stroke-width="2" x1="0" y1="7" x2="7" y2="0"></line>
      </g>
      <g width="7" height="7" transform="translate(-3.5,101.5)" fill="#FFC000" stroke="white" stroke-width="1">
        <polygon points="0,7 7,7 3.5,0"></polygon>
      </g>
      <g width="7" height="7" transform="translate(6.5,281.5)" fill="#FFC000" stroke="white" stroke-width="1">
        <polygon points="0,7 7,7 3.5,0"></polygon>
      </g>
      <g width="7" height="7" transform="translate(16.5,251.5)" fill="#FFC000" stroke="white" stroke-width="1">
        <polygon points="0,7 7,7 3.5,0"></polygon>
      </g>
      <g width="7" height="7" transform="translate(26.5,191.5)" fill="#FFC000" stroke="white" stroke-width="1">
        <polygon points="0,7 7,7 3.5,0"></polygon>
      </g>
      <g width="7" height="7" transform="translate(36.5,221.5)" fill="#FFC000" stroke="white" stroke-width="1">
        <polygon points="0,7 7,7 3.5,0"></polygon>
      </g>
      <g width="7" height="7" transform="translate(46.5,56.5)" fill="#FFC000" stroke="white" stroke-width="1">
        <polygon points="0,7 7,7 3.5,0"></polygon>
      </g>
      <g width="7" height="7" transform="translate(56.5,11.5)" fill="#FFC000" stroke="white" stroke-width="1">
        <polygon points="0,7 7,7 3.5,0"></polygon>
      </g>
      <g width="7" height="7" transform="translate(66.5,191.5)" fill="#FFC000" stroke="white" stroke-width="1">
        <polygon points="0,7 7,7 3.5,0"></polygon>
      </g>
      <g width="7" height="7" transform="translate(76.5,251.5)" fill="#FFC000" stroke="white" stroke-width="1">
        <polygon points="0,7 7,7 3.5,0"></polygon>
      </g>
      <g width="7" height="7" transform="translate(86.5,116.5)" fill="#FFC000" stroke="white" stroke-width="1">
        <polygon points="0,7 7,7 3.5,0"></polygon>
      </g>
      <g width="7" height="7" transform="translate(96.5,236.5)" fill="#FFC000" stroke="white" stroke-width="1">
        <polygon points="0,7 7,7 3.5,0"></polygon>
      </g>
      <g width="7" height="7" transform="translate(106.5,266.5)" fill="#FFC000" stroke="white" stroke-width="1">
        <polygon points="0,7 7,7 3.5,0"></polygon>
      </g>
      <g width="7" height="7" transform="translate(116.5,206.5)" fill="#FFC000" stroke="white" stroke-width="1">
        <polygon points="0,7 7,7 3.5,0"></polygon>
      </g>
      <g width="7" height="7" transform="translate(126.5,266.5)" fill="#FFC000" stroke="white" stroke-width="1">
        <polygon points="0,7 7,7 3.5,0"></polygon>
      </g>
      <g width="7" height="7" transform="translate(136.5,56.5)" fill="#FFC000" stroke="white" stroke-width="1">
        <polygon points="0,7 7,7 3.5,0"></polygon>
      </g>
      <g width="7" height="7" transform="translate(146.5,221.5)" fill="#FFC000" stroke="white" stroke-width="1">
        <polygon points="0,7 7,7 3.5,0"></polygon>
      </g>
      <g width="7" height="7" transform="translate(156.5,41.5)" fill="#FFC000" stroke="white" stroke-width="1">
        <polygon points="0,7 7,7 3.5,0"></polygon>
      </g>
      <g width="7" height="7" transform="translate(166.5,56.5)" fill="#FFC000" stroke="white" stroke-width="1">
        <polygon points="0,7 7,7 3.5,0"></polygon>
      </g>
      <g width="7" height="7" transform="translate(176.5,41.5)" fill="#FFC000" stroke="white" stroke-width="1">
        <polygon points="0,7 7,7 3.5,0"></polygon>
      </g>
      <g width="7" height="7" transform="translate(186.5,101.5)" fill="#FFC000" stroke="white" stroke-width="1">
        <polygon points="0,7 7,7 3.5,0"></polygon>
      </g>
      <g width="7" height="7" transform="translate(196.5,266.5)" fill="#FFC000" stroke="white" stroke-width="1">
        <polygon points="0,7 7,7 3.5,0"></polygon>
      </g>
      <g width="7" height="7" transform="translate(206.5,266.5)" fill="#FFC000" stroke="white" stroke-width="1">
        <polygon points="0,7 7,7 3.5,0"></polygon>
      </g>
      <g width="7" height="7" transform="translate(216.5,161.5)" fill="#FFC000" stroke="white" stroke-width="1">
        <polygon points="0,7 7,7 3.5,0"></polygon>
      </g>
      <g width="7" height="7" transform="translate(226.5,176.5)" fill="#FFC000" stroke="white" stroke-width="1">
        <polygon points="0,7 7,7 3.5,0"></polygon>
      </g>
      <g width="7" height="7" transform="translate(236.5,56.5)" fill="#FFC000" stroke="white" stroke-width="1">
        <polygon points="0,7 7,7 3.5,0"></polygon>
      </g>
      <g width="7" height="7" transform="translate(246.5,161.5)" fill="#FFC000" stroke="white" stroke-width="1">
        <polygon points="0,7 7,7 3.5,0"></polygon>
      </g>
      <g width="7" height="7" transform="translate(256.5,71.5)" fill="#FFC000" stroke="white" stroke-width="1">
        <polygon points="0,7 7,7 3.5,0"></polygon>
      </g>
      <g width="7" height="7" transform="translate(266.5,266.5)" fill="#FFC000" stroke="white" stroke-width="1">
        <polygon points="0,7 7,7 3.5,0"></polygon>
      </g>
      <g width="7" height="7" transform="translate(276.5,41.5)" fill="#FFC000" stroke="white" stroke-width="1">
        <polygon points="0,7 7,7 3.5,0"></polygon>
      </g>
      <g width="7" height="7" transform="translate(286.5,236.5)" fill="#FFC000" stroke="white" stroke-width="1">
        <polygon points="0,7 7,7 3.5,0"></polygon>
      </g>
    </g>
  </g>
  <g transform="translate(0.5,0.5)">
    <g visibility="visible" transform="translate(0,0)">
      <line x1="0" y1="0" x2="300" y2="0" stroke="#a9a9a9" stroke-width="1" opacity="0.8"></line>
      <line x1="0" y1="0" x2="0" y2="300" stroke="#a9a9a9" stroke-width="1" opacity="0.8"></line>
      <g transform="translate(-55,0)">
        <polygon fill="black" fill-opacity="0.5" points="0,0 50,0 50,6.5 55,9 50,11.5 50,18 0,18"></polygon>
        <text font-family="arial,Tahoma,verdana" font-size="11px" fill="white" text-anchor="middle" x="25" y="12"></text>
      </g>
      <g transform="translate(0,305)">
        <polygon fill="black" fill-opacity="0.5" points="0,5 22.5,5 25,0 27.5,5 50,5 50,23 0,23"></polygon>
        <text font-family="arial,Tahoma,verdana" font-size="11px" fill="white" text-anchor="middle" x="25" y="17"></text>
      </g>
    </g>
    <g visibility="hidden" transform="translate(-22,234.5)">
      <polygon fill="white" fill-opacity="0.7" stroke="#aaaaaa" stroke-width="1" points="0,0 54,0 54,22 30.5,22 27,29 23.5,22 0,22"></polygon>
      <text font-family="arial,Tahoma,verdana" font-size="12px" fill="#333" y="14" text-anchor="middle" x="27">profit: 3</text>
    </g>
  </g>
</svg>